<svg width="35" height="35" fill="none" xmlns="http://www.w3.org/2000/svg"><g clip-path="url(#clip0)"><path d="M30.625 4.375H4.375A4.375 4.375 0 000 8.75v17.5a4.375 4.375 0 004.375 4.375h26.25A4.375 4.375 0 0035 26.25V8.75a4.375 4.375 0 00-4.375-4.375zM23.424 16.05l9.26-7.936c.064.205.129.41.129.636v17.5c0 .151-.058.286-.088.43l-9.301-10.63zm7.201-9.488c.146 0 .274.056.41.084L17.5 18.248 3.965 6.646c.136-.028.264-.083.41-.083h26.25zM2.275 26.677c-.031-.143-.087-.275-.087-.427V8.75c0-.227.065-.432.13-.636l9.256 7.933-9.299 10.63zm2.1 1.76c-.221 0-.422-.063-.624-.125l9.485-10.84 3.553 3.044c.203.178.458.265.711.265.253 0 .508-.087.711-.265l3.553-3.044 9.485 10.84c-.2.061-.402.125-.624.125H4.375z" fill="#F5AF01"/></g><defs><clipPath id="clip0"><path fill="#fff" d="M0 0h35v35H0z"/></clipPath></defs></svg>