<svg width="35" height="35" fill="none" xmlns="http://www.w3.org/2000/svg"><path d="M17.5 2.188c8.442 0 15.313 6.87 15.313 15.312S25.942 32.813 17.5 32.813 2.187 25.943 2.187 17.5c0-8.442 6.87-15.313 15.313-15.313zM17.5 0C7.835 0 0 7.835 0 17.5S7.835 35 17.5 35 35 27.165 35 17.5 27.165 0 17.5 0zm9.756 23.351l-.098-.299c-.231-.688-.992-1.405-1.692-1.598l-2.587-.707c-.7-.19-1.7.066-2.216.58l-.935.937a9.938 9.938 0 01-6.987-6.99l.935-.936c.512-.512.77-1.512.58-2.214l-.706-2.588c-.19-.7-.912-1.461-1.6-1.692l-.294-.098c-.69-.23-1.675.002-2.188.517L8.067 9.664c-.25.248-.41.96-.41.962a16.556 16.556 0 004.84 11.877 16.536 16.536 0 0011.837 4.838c.024 0 .755-.155 1.006-.405l1.402-1.402c.512-.51.742-1.495.514-2.183z" fill="#fff"/></svg>