<svg width="35" height="35" fill="none" xmlns="http://www.w3.org/2000/svg"><path d="M1.997 17.104c.033-.376.101-1.101.156-1.826a1.005 1.005 0 00-.082-.513c-2.74-5.469.171-11.99 6.084-13.554 2.339-.623 4.6-.342 6.775.737.17.082.39.13.574.11 4.375-.485 8.326.567 11.757 3.342 3.2 2.591 5.073 5.961 5.633 10.056.185 1.354.172 2.7.008 4.054-.028.204.02.457.122.636 3.302 5.79-.198 13.125-6.781 14.156-2.31.363-4.484-.081-6.494-1.291a.981.981 0 00-.533-.13c-6.61.636-12.626-2.666-15.613-8.573-1.027-2.03-1.573-4.381-1.607-7.204zm1.326.355c.047 3.431 1.237 6.72 3.568 9.31 3.335 3.706 7.526 5.25 12.482 4.697.307-.034.56.013.828.19 2.131 1.41 4.442 1.771 6.883 1.054 5.161-1.524 7.43-7.527 4.6-12.12-.15-.24-.286-.465-.232-.786.328-1.84.267-3.671-.143-5.497A14.134 14.134 0 0015.517 3.446a1.647 1.647 0 01-1.066-.185C10.8 1.273 6.247 2.304 3.89 5.73c-1.908 2.775-1.997 5.7-.458 8.682.11.218.17.416.136.67-.102.792-.17 1.585-.246 2.378z" fill="#F5AF01"/><path d="M17.329 26.189c-1.402-.014-2.768-.185-4.067-.753-.793-.348-1.504-.813-2.092-1.45-.54-.58-.868-1.25-.868-2.056-.007-1.286 1.278-2.058 2.399-1.422.266.15.5.396.718.622.233.239.438.493.636.758.929 1.23 2.228 1.532 3.67 1.45.684-.035 1.32-.226 1.88-.643.643-.485.971-1.114.828-1.927-.137-.773-.698-1.156-1.388-1.347-1.34-.37-2.687-.698-4.033-1.033-1.053-.266-2.085-.56-2.98-1.217-1.075-.78-1.642-1.845-1.71-3.158-.123-2.42.937-4.122 3.24-4.969 2.783-1.026 5.524-.868 8.129.629.485.28.93.663 1.312 1.073.274.294.465.71.574 1.1.226.794-.007 1.388-.601 1.764-.67.424-1.518.41-2.106-.088-.39-.329-.732-.719-1.087-1.088a3.086 3.086 0 00-1.422-.84c-.943-.26-1.886-.301-2.83-.035-.58.164-1.052.486-1.326 1.046-.363.732-.219 1.436.486 1.84.55.315 1.141.554 1.757.71 1.27.336 2.577.574 3.848.91a7.82 7.82 0 011.77.704c1.839 1.018 2.461 2.734 2.242 4.682-.253 2.222-1.702 3.78-4.067 4.369-.943.232-1.927.307-2.891.45-.014-.02-.014-.054-.021-.081z" fill="#F5AF01"/></svg>