<svg width="35" height="35" fill="none" xmlns="http://www.w3.org/2000/svg"><g clip-path="url(#clip0)"><path d="M16.576.003C13.618.04 7.254.501 3.693 3.598 1.051 6.09.127 9.768.02 14.32c-.092 4.536-.199 13.053 8.452 15.372v3.53s-.058 1.415.925 1.706c1.214.365 1.905-.728 3.058-1.894l2.15-2.304c5.917.467 10.45-.611 10.972-.772 1.199-.364 7.962-1.183 9.068-9.7 1.137-8.796-.553-14.338-3.595-16.846l-.016-.003C30.11 2.607 26.423.055 18.171.026c0 0-.608-.037-1.595-.024v.001zm.104 2.474c.837-.004 1.352.03 1.352.03 6.976.014 10.312 2.012 11.095 2.683 2.566 2.084 3.885 7.081 2.92 14.426-.922 7.117-6.408 7.569-7.422 7.875-.43.131-4.425 1.064-9.453.758 0 0-3.748 4.289-4.916 5.398-.184.19-.4.247-.537.218-.2-.043-.262-.277-.247-.598l.032-5.86c-7.332-1.926-6.901-9.191-6.825-12.982.092-3.792.846-6.902 3.074-9.002 3.006-2.581 8.412-2.931 10.924-2.945h.002v-.001zm.553 3.792a.481.481 0 00-.326.127.435.435 0 00-.136.308v.001a.418.418 0 00.136.31.461.461 0 00.326.127 9.067 9.067 0 013.34.573 8.719 8.719 0 012.852 1.747c1.675 1.545 2.49 3.616 2.522 6.328a.418.418 0 00.135.31c.088.084.205.13.326.128v-.013a.474.474 0 00.326-.128.427.427 0 00.135-.31 8.976 8.976 0 00-.639-3.742 9.36 9.36 0 00-2.143-3.2C22.26 7.145 19.951 6.27 17.23 6.27h.003zm-6.076 1.006a1.536 1.536 0 00-.945.175h-.018a7.225 7.225 0 00-1.765 1.371c-.415.467-.646.932-.708 1.385-.036.264-.01.534.077.788l.03.015A19.557 19.557 0 009.674 14.8a22.535 22.535 0 003.564 4.624l.046.058.062.044.046.043.046.044a23.958 23.958 0 004.886 3.398c2.029 1.05 3.262 1.546 3.999 1.75v.015a2.3 2.3 0 00.612.087 2.905 2.905 0 001.692-.688 6.664 6.664 0 001.43-1.674v-.015c.353-.627.23-1.226-.277-1.634a20.96 20.96 0 00-3.303-2.246c-.784-.409-1.584-.16-1.906.248l-.692.83c-.353.408-.998.35-.998.35l-.019.014c-4.794-1.167-6.07-5.773-6.07-5.773s-.06-.628.385-.948l.86-.657c.415-.321.707-1.079.261-1.823a19.772 19.772 0 00-2.365-3.135 1.31 1.31 0 00-.774-.438h-.001zm6.873 1.298a.481.481 0 00-.326.13.436.436 0 00-.133.31.418.418 0 00.135.308c.088.083.206.13.327.127a5.965 5.965 0 014.073 1.677c.478.5.85 1.093 1.09 1.742.238.644.337 1.325.292 2.006 0 .116.05.227.135.309a.474.474 0 00.326.127l.016.018a.474.474 0 00.326-.128.426.426 0 00.135-.31v-.002c.045-1.734-.523-3.193-1.645-4.36-1.122-1.166-2.689-1.823-4.687-1.954a.486.486 0 00-.064 0zm.753 2.361a.485.485 0 00-.336.122.435.435 0 00-.117.483.434.434 0 00.097.147.482.482 0 00.328.139c1.522.073 2.26.803 2.352 2.305a.428.428 0 00.14.3.47.47 0 00.32.123h.016a.484.484 0 00.321-.138.435.435 0 00.125-.33c-.108-1.953-1.23-3.048-3.228-3.15h-.018z" fill="#F5AF01"/></g><defs><clipPath id="clip0"><path fill="#fff" d="M0 0h35v35H0z"/></clipPath></defs></svg>