<svg width="35" height="35" fill="none" xmlns="http://www.w3.org/2000/svg"><path d="M35 17.049c0 9.417-7.692 17.05-17.182 17.05-3.012 0-5.843-.77-8.305-2.122L0 35l3.101-9.148A16.87 16.87 0 01.636 17.05C.636 7.633 8.328 0 17.818 0 27.31 0 35 7.633 35 17.049zM17.818 2.715c-7.966 0-14.445 6.43-14.445 14.334a14.183 14.183 0 002.751 8.404L4.32 30.777l5.552-1.764a14.436 14.436 0 007.947 2.37c7.965 0 14.446-6.43 14.446-14.333 0-7.904-6.48-14.334-14.446-14.334v-.001zm8.676 18.261c-.106-.174-.386-.278-.806-.488-.422-.209-2.493-1.22-2.878-1.359-.387-.14-.668-.21-.948.21-.281.418-1.088 1.358-1.334 1.637-.246.28-.491.314-.913.105-.421-.208-1.778-.65-3.387-2.074-1.251-1.107-2.097-2.474-2.343-2.894-.245-.417-.025-.644.185-.851.19-.188.422-.489.632-.732.211-.244.281-.419.421-.698.141-.278.07-.523-.036-.732-.105-.209-.947-2.265-1.299-3.102-.35-.836-.7-.697-.946-.697s-.527-.035-.808-.035c-.28 0-.737.104-1.123.523-.386.418-1.474 1.43-1.474 3.486s1.508 4.043 1.72 4.321c.21.279 2.913 4.635 7.194 6.309 4.282 1.673 4.282 1.114 5.055 1.044.771-.069 2.49-1.01 2.843-1.986.35-.977.35-1.814.245-1.987z" fill="#F5AF01"/></svg>