<svg width="557" height="557" fill="none" xmlns="http://www.w3.org/2000/svg"><path d="M472.601 84.4c7.67 7.67 10.71 20.177 8.551 37.314-2.15 17.072-9.393 37.997-21.253 61.451-23.698 46.866-65.406 102.999-119.571 157.164-54.165 54.164-110.298 95.873-157.164 119.571-23.454 11.859-44.379 19.102-61.45 21.253-17.137 2.159-29.644-.881-37.315-8.552-7.67-7.67-10.71-20.177-8.551-37.314 2.15-17.071 9.393-37.997 21.253-61.45 23.698-46.867 65.406-103 119.571-157.164C270.837 162.508 326.97 120.8 373.836 97.101 397.29 85.241 418.215 78 435.286 75.85c17.137-2.16 29.644.88 37.315 8.55z" stroke="url(#paint0_linear)" stroke-width="8"/><path d="M472.601 472.601c-7.671 7.67-20.178 10.71-37.315 8.551-17.071-2.15-37.996-9.393-61.45-21.253-46.866-23.698-102.999-65.406-157.164-119.571-54.164-54.165-95.873-110.298-119.571-157.164-11.86-23.454-19.102-44.379-21.253-61.45-2.159-17.137.88-29.644 8.551-37.315 7.67-7.67 20.178-10.71 37.315-8.551 17.071 2.15 37.997 9.393 61.45 21.253 46.866 23.698 102.999 65.406 157.164 119.571 54.165 54.165 95.873 110.298 119.571 157.164 11.86 23.454 19.103 44.379 21.253 61.45 2.159 17.137-.881 29.644-8.551 37.315z" stroke="url(#paint1_linear)" stroke-width="8"/><path d="M553 278.5c0 10.828-6.692 21.806-20.337 32.383-13.592 10.537-33.51 20.2-58.48 28.387-49.897 16.361-119.082 26.547-195.683 26.547S132.714 355.631 82.817 339.27c-24.97-8.187-44.888-17.85-58.48-28.387C10.692 300.306 4 289.328 4 278.5c0-10.829 6.692-21.806 20.337-32.384 13.592-10.537 33.51-20.199 58.48-28.387 49.897-16.361 119.082-26.547 195.683-26.547s145.786 10.186 195.683 26.547c24.97 8.188 44.888 17.85 58.48 28.387C546.308 256.694 553 267.671 553 278.5z" stroke="url(#paint2_linear)" stroke-width="8"/><path d="M278.5 4c10.829 0 21.806 6.692 32.384 20.337 10.537 13.592 20.199 33.51 28.387 58.48 16.36 49.897 26.547 119.082 26.547 195.683s-10.187 145.786-26.547 195.683c-8.188 24.97-17.85 44.888-28.387 58.48C300.306 546.308 289.329 553 278.5 553s-21.806-6.692-32.384-20.337c-10.536-13.592-20.199-33.51-28.386-58.48-16.361-49.897-26.548-119.082-26.548-195.683s10.187-145.786 26.548-195.683c8.187-24.97 17.85-44.888 28.386-58.48C256.694 10.692 267.671 4 278.5 4z" stroke="url(#paint3_linear)" stroke-width="8"/><defs><linearGradient id="paint0_linear" x1="213.844" y1="213.844" x2="343.156" y2="343.157" gradientUnits="userSpaceOnUse"><stop stop-color="#174571"/><stop offset="1" stop-color="#5CBBC1"/></linearGradient><linearGradient id="paint1_linear" x1="343.156" y1="213.844" x2="213.844" y2="343.156" gradientUnits="userSpaceOnUse"><stop stop-color="#174571"/><stop offset="1" stop-color="#5CBBC1"/></linearGradient><linearGradient id="paint2_linear" x1="278.5" y1="187.182" x2="278.5" y2="369.817" gradientUnits="userSpaceOnUse"><stop stop-color="#174571"/><stop offset="1" stop-color="#5CBBC1"/></linearGradient><linearGradient id="paint3_linear" x1="187.182" y1="278.5" x2="369.818" y2="278.5" gradientUnits="userSpaceOnUse"><stop stop-color="#174571"/><stop offset="1" stop-color="#5CBBC1"/></linearGradient></defs></svg>