<svg width="110" height="43" fill="none" xmlns="http://www.w3.org/2000/svg"><path d="M53.12 21.6c0 1.296.288 2.44.864 3.432.592.992 1.36 1.768 2.304 2.328.944.56 1.968.84 3.072.84 1.184 0 2.232-.232 3.144-.696.912-.464 1.664-1.064 2.256-1.8v2.688a7.164 7.164 0 01-2.304 1.392c-.832.304-1.864.456-3.096.456a8.652 8.652 0 01-3.288-.624 8.425 8.425 0 01-2.664-1.8 8.496 8.496 0 01-1.8-2.76c-.432-1.056-.648-2.208-.648-3.456 0-1.248.216-2.4.648-3.456a8.225 8.225 0 011.8-2.736 7.926 7.926 0 012.664-1.8 8.371 8.371 0 013.288-.648c1.232 0 2.264.152 3.096.456.832.304 1.6.768 2.304 1.392v2.688a6.431 6.431 0 00-2.256-1.8c-.912-.464-1.96-.696-3.144-.696-1.104 0-2.128.28-3.072.84-.944.56-1.712 1.336-2.304 2.328-.576.976-.864 2.12-.864 3.432zm15.23-8.4h9v1.92h-6.96v4.8h2.52c1.088 0 2.056.208 2.904.624.864.4 1.544.976 2.04 1.728.512.752.768 1.648.768 2.688 0 1.024-.256 1.92-.768 2.688-.496.752-1.176 1.336-2.04 1.752-.848.4-1.816.6-2.904.6h-4.56V13.2zm4.56 8.64h-2.52v6.24h2.52c1.088 0 1.968-.264 2.64-.792.688-.528 1.032-1.304 1.032-2.328 0-1.04-.344-1.816-1.032-2.328-.672-.528-1.552-.792-2.64-.792zm10.628-8.64v12.504l12.72-13.344V30h-2.04V17.496L81.498 30.84V13.2h2.04zm14.89 1.92V13.2h10.68v1.92h-4.32V30h-2.04V15.12h-4.32z" fill="#fff"/><path d="M35.996 7.004c.375.375.617 1.08.463 2.306-.153 1.209-.675 2.745-1.572 4.518-1.788 3.537-4.959 7.812-9.103 11.956-4.144 4.145-8.42 7.315-11.956 9.103-1.773.897-3.309 1.42-4.518 1.572-1.226.154-1.93-.088-2.306-.463-.375-.375-.617-1.08-.463-2.306.153-1.209.675-2.745 1.572-4.518 1.788-3.537 4.959-7.812 9.103-11.956 4.144-4.145 8.42-7.315 11.956-9.103 1.773-.897 3.309-1.42 4.518-1.572 1.226-.154 1.93.088 2.306.463z" stroke="url(#paint0_linear)" stroke-width="2"/><path d="M35.996 35.996c-.375.375-1.08.617-2.306.463-1.209-.153-2.745-.675-4.518-1.572-3.537-1.788-7.812-4.959-11.956-9.103-4.145-4.144-7.315-8.42-9.103-11.956-.897-1.773-1.42-3.309-1.572-4.518-.154-1.226.088-1.93.463-2.306.375-.375 1.08-.617 2.306-.463 1.209.153 2.745.675 4.518 1.572 3.537 1.788 7.812 4.959 11.956 9.103 4.145 4.144 7.315 8.42 9.103 11.956.897 1.773 1.42 3.309 1.572 4.518.154 1.226-.088 1.93-.463 2.306z" stroke="url(#paint1_linear)" stroke-width="2"/><path d="M42 21.5c0 .528-.326 1.197-1.302 1.954-.963.746-2.419 1.462-4.307 2.08-3.765 1.235-9.03 2.016-14.891 2.016-5.86 0-11.126-.78-14.891-2.015-1.888-.62-3.344-1.335-4.307-2.081C1.326 22.697 1 22.028 1 21.5c0-.529.326-1.197 1.302-1.954.963-.746 2.419-1.462 4.307-2.08 3.765-1.235 9.03-2.016 14.891-2.016 5.86 0 11.126.78 14.891 2.015 1.888.62 3.344 1.335 4.307 2.081.976.757 1.302 1.425 1.302 1.954z" stroke="url(#paint2_linear)" stroke-width="2"/><path d="M21.5 1c.528 0 1.197.326 1.954 1.302.746.963 1.462 2.419 2.08 4.307 1.235 3.765 2.016 9.03 2.016 14.891 0 5.86-.78 11.126-2.015 14.891-.62 1.888-1.335 3.344-2.081 4.307C22.697 41.674 22.028 42 21.5 42c-.529 0-1.197-.326-1.954-1.302-.746-.963-1.462-2.419-2.08-4.307-1.235-3.765-2.016-9.03-2.016-14.891 0-5.86.78-11.126 2.015-14.891.62-1.888 1.335-3.344 2.081-4.307C20.303 1.326 20.971 1 21.5 1z" stroke="url(#paint3_linear)" stroke-width="2"/><defs><linearGradient id="paint0_linear" x1="16.509" y1="16.509" x2="26.491" y2="26.491" gradientUnits="userSpaceOnUse"><stop stop-color="#174571"/><stop offset="1" stop-color="#5CBBC1"/></linearGradient><linearGradient id="paint1_linear" x1="26.491" y1="16.509" x2="16.509" y2="26.491" gradientUnits="userSpaceOnUse"><stop stop-color="#174571"/><stop offset="1" stop-color="#5CBBC1"/></linearGradient><linearGradient id="paint2_linear" x1="21.5" y1="14.45" x2="21.5" y2="28.55" gradientUnits="userSpaceOnUse"><stop stop-color="#174571"/><stop offset="1" stop-color="#5CBBC1"/></linearGradient><linearGradient id="paint3_linear" x1="14.45" y1="21.5" x2="28.55" y2="21.5" gradientUnits="userSpaceOnUse"><stop stop-color="#174571"/><stop offset="1" stop-color="#5CBBC1"/></linearGradient></defs></svg>